<?xml version="1.0" standalone="no"?>
<!DOCTYPE svg PUBLIC "-//W3C//DTD SVG 20010904//EN"
 "http://www.w3.org/TR/2001/REC-SVG-20010904/DTD/svg10.dtd">
<svg version="1.0" xmlns="http://www.w3.org/2000/svg"
 width="384.000000pt" height="500.000000pt" viewBox="0 0 384.000000 500.000000"
 preserveAspectRatio="xMidYMid meet">
<metadata>
Created by potrace 1.16, written by Peter Selinger 2001-2019
</metadata>
<g transform="translate(0.000000,500.000000) scale(0.100000,-0.100000)"
fill="#000000" stroke="none">
<path d="M2435 3681 c-16 -10 -41 -30 -54 -45 l-25 -26 -28 27 c-15 14 -31 23
-35 19 -5 -4 -63 -60 -130 -124 -68 -64 -123 -122 -123 -128 0 -38 32 -16 141
92 96 96 121 116 129 104 5 -8 10 -18 10 -22 0 -3 -85 -89 -190 -190 -104
-100 -190 -188 -190 -194 0 -6 29 -39 65 -73 l65 -63 195 189 c107 103 202
189 210 191 8 2 15 11 15 21 0 9 18 34 40 56 50 49 67 95 50 136 -7 16 -21 34
-31 39 -28 16 -81 11 -114 -9z"/>
<path d="M1888 3153 c-9 -10 -46 -74 -82 -142 -48 -88 -64 -127 -56 -135 7 -7
46 8 133 53 67 35 131 72 142 82 19 19 19 20 -51 90 -66 66 -71 69 -86 52z"/>
<path d="M635 2715 c-9 -72 -2 -89 19 -40 21 50 44 75 68 75 17 0 18 -11 18
-159 l0 -160 -27 -4 c-16 -2 17 -4 72 -4 55 0 90 2 78 4 -21 4 -22 8 -25 164
-3 136 -1 159 12 159 26 0 38 -14 62 -65 l23 -50 3 44 c7 89 12 86 -152 88
l-145 2 -6 -54z"/>
<path d="M1433 2763 c15 -4 17 -21 17 -168 0 -147 -2 -164 -17 -168 -10 -3 31
-5 90 -6 158 -2 215 28 237 120 15 62 6 129 -22 165 -35 43 -81 57 -208 59
-63 1 -107 0 -97 -2z m202 -35 c16 -15 21 -34 24 -104 5 -142 -16 -194 -79
-194 l-30 0 0 165 0 165 33 -6 c17 -4 41 -15 52 -26z"/>
<path d="M2250 2758 c0 -5 7 -8 15 -8 13 0 15 -24 15 -159 0 -144 -2 -160 -17
-164 -10 -3 43 -5 119 -6 l136 -1 4 55 c3 62 -4 69 -27 26 -19 -38 -62 -71
-91 -71 l-24 0 0 160 0 160 25 0 c14 0 25 4 25 9 0 5 -40 9 -90 8 -49 -1 -90
-5 -90 -9z"/>
<path d="M2983 2728 c-27 -9 -33 -16 -33 -39 0 -16 -7 -32 -17 -38 -17 -10
-17 -10 0 -11 15 0 17 -11 17 -99 0 -111 5 -120 67 -128 29 -4 44 0 66 17 15
12 27 29 27 38 -1 14 -3 14 -12 -3 -15 -26 -28 -34 -45 -28 -10 4 -13 31 -13
104 l0 99 30 0 c17 0 30 5 30 11 0 7 -11 9 -30 6 -30 -6 -30 -6 -30 38 0 48
-3 50 -57 33z"/>
<path d="M1034 2646 c-46 -20 -64 -52 -64 -114 0 -46 4 -58 28 -82 50 -50 152
-50 197 0 23 26 32 110 15 151 -22 53 -107 75 -176 45z"/>
<path d="M1860 2642 c-43 -21 -60 -53 -60 -115 0 -40 5 -54 28 -77 16 -16 45
-31 64 -35 44 -8 109 9 133 35 23 25 32 110 15 149 -23 56 -112 77 -180 43z"/>
<path d="M2540 2651 c0 -6 7 -11 15 -11 12 0 15 -18 15 -104 0 -91 -2 -105
-17 -109 -10 -3 18 -5 62 -5 44 0 72 2 63 5 -16 4 -18 18 -18 114 l0 109 -37
0 c-21 0 -48 3 -60 6 -14 4 -23 2 -23 -5z"/>
<path d="M2747 2640 c-31 -25 -41 -63 -25 -97 9 -19 30 -32 73 -48 63 -22 81
-46 47 -64 -31 -17 -89 5 -107 39 -20 39 -25 38 -25 -8 0 -42 -2 -42 107 -45
55 -2 87 27 87 77 0 47 -25 72 -90 91 -57 16 -69 36 -35 55 32 17 51 12 82
-21 l29 -31 0 37 c0 29 -3 35 -13 27 -8 -7 -18 -7 -27 -2 -25 16 -76 11 -103
-10z"/>
</g>
</svg>
